<svg width="37" height="12" viewBox="0 0 37 12" fill="none" xmlns="http://www.w3.org/2000/svg">
<path d="M1 5.3C0.613401 5.3 0.3 5.6134 0.3 6C0.3 6.3866 0.613401 6.7 1 6.7V5.3ZM36.495 6.49497C36.7683 6.22161 36.7683 5.77839 36.495 5.50503L32.0402 1.05025C31.7668 0.776886 31.3236 0.776886 31.0503 1.05025C30.7769 1.32362 30.7769 1.76684 31.0503 2.0402L35.0101 6L31.0503 9.9598C30.7769 10.2332 30.7769 10.6764 31.0503 10.9497C31.3236 11.2231 31.7668 11.2231 32.0402 10.9497L36.495 6.49497ZM1 6.7H36V5.3H1V6.7Z" fill="white"/>
</svg>
