<svg width="23" height="22" viewBox="0 0 23 22" fill="none" xmlns="http://www.w3.org/2000/svg">
<path d="M20.6113 0.0625C21.4414 0.0625 22.1738 0.794922 22.1738 1.67383V20.375C22.1738 21.2539 21.4414 21.9375 20.6113 21.9375H1.8125C0.982422 21.9375 0.298828 21.2539 0.298828 20.375V1.67383C0.298828 0.794922 0.982422 0.0625 1.8125 0.0625H20.6113ZM6.89062 18.8125V8.41211H3.66797V18.8125H6.89062ZM5.2793 6.94727C6.30469 6.94727 7.13477 6.11719 7.13477 5.0918C7.13477 4.06641 6.30469 3.1875 5.2793 3.1875C4.20508 3.1875 3.375 4.06641 3.375 5.0918C3.375 6.11719 4.20508 6.94727 5.2793 6.94727ZM19.0488 18.8125V13.0996C19.0488 10.3164 18.4141 8.11914 15.1426 8.11914C13.5801 8.11914 12.5059 8.99805 12.0664 9.82812H12.0176V8.41211H8.94141V18.8125H12.1641V13.6855C12.1641 12.3184 12.4082 11 14.1172 11C15.7773 11 15.7773 12.5625 15.7773 13.7344V18.8125H19.0488Z" fill="white"/>
</svg>
