<svg width="26" height="22" viewBox="0 0 26 22" fill="none" xmlns="http://www.w3.org/2000/svg">
<path d="M22.5859 5.89746C22.5859 6.1416 22.5859 6.33691 22.5859 6.58105C22.5859 13.3682 17.459 21.1318 8.03516 21.1318C5.10547 21.1318 2.41992 20.3018 0.173828 18.8369C0.564453 18.8857 0.955078 18.9346 1.39453 18.9346C3.78711 18.9346 5.98438 18.1045 7.74219 16.7373C5.49609 16.6885 3.5918 15.2236 2.95703 13.1729C3.29883 13.2217 3.5918 13.2705 3.93359 13.2705C4.37305 13.2705 4.86133 13.1729 5.25195 13.0752C2.9082 12.5869 1.15039 10.5361 1.15039 8.0459V7.99707C1.83398 8.3877 2.66406 8.58301 3.49414 8.63184C2.07812 7.7041 1.19922 6.1416 1.19922 4.38379C1.19922 3.40723 1.44336 2.52832 1.88281 1.7959C4.42188 4.87207 8.23047 6.92285 12.4785 7.16699C12.3809 6.77637 12.332 6.38574 12.332 5.99512C12.332 3.16309 14.627 0.868164 17.459 0.868164C18.9238 0.868164 20.2422 1.4541 21.2188 2.47949C22.3418 2.23535 23.4648 1.7959 24.4414 1.20996C24.0508 2.43066 23.2695 3.40723 22.1953 4.04199C23.2207 3.94434 24.2461 3.65137 25.125 3.26074C24.4414 4.28613 23.5625 5.16504 22.5859 5.89746Z" fill="white"/>
</svg>
