<svg width="22" height="22" viewBox="0 0 22 22" fill="none" xmlns="http://www.w3.org/2000/svg">
<path d="M11.0869 5.36035C14.1631 5.36035 16.7021 7.89941 16.7021 10.9756C16.7021 14.1006 14.1631 16.5908 11.0869 16.5908C7.96191 16.5908 5.47168 14.1006 5.47168 10.9756C5.47168 7.89941 7.96191 5.36035 11.0869 5.36035ZM11.0869 14.6377C13.0889 14.6377 14.7002 13.0264 14.7002 10.9756C14.7002 8.97363 13.0889 7.3623 11.0869 7.3623C9.03613 7.3623 7.4248 8.97363 7.4248 10.9756C7.4248 13.0264 9.08496 14.6377 11.0869 14.6377ZM18.2158 5.16504C18.2158 5.89746 17.6299 6.4834 16.8975 6.4834C16.165 6.4834 15.5791 5.89746 15.5791 5.16504C15.5791 4.43262 16.165 3.84668 16.8975 3.84668C17.6299 3.84668 18.2158 4.43262 18.2158 5.16504ZM21.9268 6.4834C22.0244 8.29004 22.0244 13.71 21.9268 15.5166C21.8291 17.2744 21.4385 18.7881 20.1689 20.1064C18.8994 21.376 17.3369 21.7666 15.5791 21.8643C13.7725 21.9619 8.35254 21.9619 6.5459 21.8643C4.78809 21.7666 3.27441 21.376 1.95605 20.1064C0.686523 18.7881 0.295898 17.2744 0.198242 15.5166C0.100586 13.71 0.100586 8.29004 0.198242 6.4834C0.295898 4.72559 0.686523 3.16309 1.95605 1.89355C3.27441 0.624023 4.78809 0.233398 6.5459 0.135742C8.35254 0.0380859 13.7725 0.0380859 15.5791 0.135742C17.3369 0.233398 18.8994 0.624023 20.1689 1.89355C21.4385 3.16309 21.8291 4.72559 21.9268 6.4834ZM19.583 17.4209C20.1689 16.0049 20.0225 12.5869 20.0225 10.9756C20.0225 9.41309 20.1689 5.99512 19.583 4.53027C19.1924 3.60254 18.46 2.82129 17.5322 2.47949C16.0674 1.89355 12.6494 2.04004 11.0869 2.04004C9.47559 2.04004 6.05762 1.89355 4.6416 2.47949C3.66504 2.87012 2.93262 3.60254 2.54199 4.53027C1.95605 5.99512 2.10254 9.41309 2.10254 10.9756C2.10254 12.5869 1.95605 16.0049 2.54199 17.4209C2.93262 18.3975 3.66504 19.1299 4.6416 19.5205C6.05762 20.1064 9.47559 19.96 11.0869 19.96C12.6494 19.96 16.0674 20.1064 17.5322 19.5205C18.46 19.1299 19.2412 18.3975 19.583 17.4209Z" fill="white"/>
</svg>
